<svg xmlns="http://www.w3.org/2000/svg" viewBox="0 0 960 560" role="img" aria-labelledby="title desc">
  <title id="title">Startup Studio room layout</title>
  <desc id="desc">Flexible workshop studio with pitch area, group tables, whiteboard wall, demo booth, and exits.</desc>
  <rect width="960" height="560" fill="#11131f"/>
  <rect x="38" y="38" width="884" height="484" rx="30" fill="#1b2033" stroke="#34d399" stroke-width="4"/>
  <rect x="94" y="76" width="324" height="86" rx="18" fill="#059669"/>
  <text x="256" y="128" fill="#ffffff" font-family="Arial, sans-serif" font-size="27" font-weight="700" text-anchor="middle">PITCH AREA</text>
  <rect x="478" y="76" width="350" height="86" rx="18" fill="#0f172a" stroke="#6ee7b7" stroke-width="3"/>
  <text x="653" y="128" fill="#d1fae5" font-family="Arial, sans-serif" font-size="25" font-weight="700" text-anchor="middle">WHITEBOARD WALL</text>
  <g fill="#f97316" stroke="#fed7aa" stroke-width="2">
    <rect x="116" y="216" width="174" height="88" rx="20"/>
    <rect x="394" y="216" width="174" height="88" rx="20"/>
    <rect x="672" y="216" width="174" height="88" rx="20"/>
    <rect x="116" y="354" width="174" height="88" rx="20"/>
    <rect x="394" y="354" width="174" height="88" rx="20"/>
    <rect x="672" y="354" width="174" height="88" rx="20"/>
  </g>
  <g fill="#431407">
    <text x="203" y="267" font-family="Arial, sans-serif" font-size="20" font-weight="700" text-anchor="middle">TEAM TABLE A</text>
    <text x="481" y="267" font-family="Arial, sans-serif" font-size="20" font-weight="700" text-anchor="middle">TEAM TABLE B</text>
    <text x="759" y="267" font-family="Arial, sans-serif" font-size="20" font-weight="700" text-anchor="middle">TEAM TABLE C</text>
    <text x="203" y="405" font-family="Arial, sans-serif" font-size="20" font-weight="700" text-anchor="middle">TEAM TABLE D</text>
    <text x="481" y="405" font-family="Arial, sans-serif" font-size="20" font-weight="700" text-anchor="middle">TEAM TABLE E</text>
    <text x="759" y="405" font-family="Arial, sans-serif" font-size="20" font-weight="700" text-anchor="middle">TEAM TABLE F</text>
  </g>
  <rect x="360" y="470" width="240" height="34" rx="8" fill="#8b5cf6"/>
  <text x="480" y="493" fill="#ffffff" font-family="Arial, sans-serif" font-size="18" font-weight="700" text-anchor="middle">DEMO BOOTH</text>
  <rect x="74" y="470" width="100" height="34" rx="8" fill="#ef4444"/>
  <rect x="786" y="470" width="100" height="34" rx="8" fill="#ef4444"/>
  <text x="124" y="493" fill="#ffffff" font-family="Arial, sans-serif" font-size="18" font-weight="700" text-anchor="middle">EXIT</text>
  <text x="836" y="493" fill="#ffffff" font-family="Arial, sans-serif" font-size="18" font-weight="700" text-anchor="middle">EXIT</text>
</svg>
